<svg width="95" height="95" viewBox="0 0 95 95" fill="none" xmlns="http://www.w3.org/2000/svg">
<circle cx="47.5" cy="47.5" r="47.5" fill="#FA5252"/>
<path d="M68.6143 60.0992C67.9253 56.3194 67.0322 51.4559 66.1663 46.7075C65.295 41.9593 64.4518 37.3376 63.8451 34.0315C63.349 31.3245 61.2757 29.2447 58.679 28.6669C58.3151 22.824 53.4414 18.1915 47.4975 18.1915C41.5541 18.1915 36.6799 22.824 36.3216 28.6728C33.7193 29.2506 31.6516 31.3304 31.1554 34.0374C29.948 40.6454 27.7701 52.5455 26.3862 60.1051C26.0279 62.0692 26.5572 64.0942 27.8419 65.629C29.1267 67.1643 31.023 68.0497 33.0299 68.0497H61.9756C63.9825 68.0497 65.8794 67.1638 67.1636 65.629C68.4378 64.0937 68.9727 62.0688 68.6143 60.0992V60.0992ZM47.4979 19.9079C52.4381 19.9079 56.5014 23.6877 56.9371 28.5073H38.0594C38.4946 23.6878 42.5585 19.9079 47.4981 19.9079H47.4979ZM57.858 41.2437C57.4941 46.6355 52.9897 50.8995 47.4983 50.8995C42.007 50.8995 37.5026 46.6355 37.1387 41.2437C36.1464 40.8861 35.4352 39.9344 35.4352 38.8172C35.4352 37.3921 36.593 36.2368 38.021 36.2368C39.449 36.2368 40.6068 37.3922 40.6068 38.8172C40.6068 39.9449 39.8792 40.9024 38.87 41.2545C39.2339 45.6892 42.9612 49.1772 47.4988 49.1772C52.0366 49.1772 55.7633 45.6892 56.1276 41.2545C55.113 40.9024 54.3908 39.9452 54.3908 38.8172C54.3908 37.3921 55.5487 36.2368 56.9766 36.2368C58.4046 36.2368 59.5625 37.3922 59.5625 38.8172C59.5616 39.9345 58.8503 40.8862 57.858 41.2437V41.2437ZM56.9757 37.9591C56.5014 37.9591 56.1157 38.3444 56.1157 38.8172C56.1157 39.2906 56.5018 39.6754 56.9757 39.6754C57.45 39.6754 57.8357 39.2901 57.8357 38.8172C57.8357 38.3444 57.45 37.9591 56.9757 37.9591ZM38.02 37.9591C37.5457 37.9591 37.1601 38.3444 37.1601 38.8172C37.1601 39.2906 37.5462 39.6754 38.02 39.6754C38.4944 39.6754 38.88 39.2901 38.88 38.8172C38.8855 38.3444 38.4998 37.9591 38.02 37.9591ZM56.9757 37.9591C56.5014 37.9591 56.1157 38.3444 56.1157 38.8172C56.1157 39.2906 56.5018 39.6754 56.9757 39.6754C57.45 39.6754 57.8357 39.2901 57.8357 38.8172C57.8357 38.3444 57.45 37.9591 56.9757 37.9591ZM38.02 37.9591C37.5457 37.9591 37.1601 38.3444 37.1601 38.8172C37.1601 39.2906 37.5462 39.6754 38.02 39.6754C38.4944 39.6754 38.88 39.2901 38.88 38.8172C38.8855 38.3444 38.4998 37.9591 38.02 37.9591ZM38.02 37.9591C37.5457 37.9591 37.1601 38.3444 37.1601 38.8172C37.1601 39.2906 37.5462 39.6754 38.02 39.6754C38.4944 39.6754 38.88 39.2901 38.88 38.8172C38.8855 38.3444 38.4998 37.9591 38.02 37.9591ZM56.9757 37.9591C56.5014 37.9591 56.1157 38.3444 56.1157 38.8172C56.1157 39.2906 56.5018 39.6754 56.9757 39.6754C57.45 39.6754 57.8357 39.2901 57.8357 38.8172C57.8357 38.3444 57.45 37.9591 56.9757 37.9591Z" fill="white"/>
</svg>
