<svg width="307" height="78" viewBox="0 0 307 78" fill="none" xmlns="http://www.w3.org/2000/svg">
<circle cx="36" cy="42" r="36" fill="#FA5252"/>
<path d="M52.0024 51.5489C51.4803 48.6842 50.8033 44.9982 50.1471 41.3994C49.4867 37.8007 48.8477 34.298 48.3879 31.7923C48.0119 29.7406 46.4406 28.1644 44.4725 27.7265C44.1967 23.2982 40.503 19.7872 35.9981 19.7872C31.4937 19.7872 27.7995 23.2982 27.528 27.731C25.5557 28.1688 23.9886 29.7451 23.6125 31.7968C22.6974 36.805 21.0468 45.824 19.998 51.5534C19.7264 53.0419 20.1276 54.5766 21.1013 55.7399C22.0749 56.9034 23.5122 57.5745 25.0332 57.5745H46.971C48.492 57.5745 49.9296 56.9031 50.9029 55.7399C51.8687 54.5763 52.274 53.0416 52.0024 51.5489V51.5489ZM35.9984 21.0881C39.7426 21.0881 42.8221 23.9528 43.1523 27.6055H28.845C29.1749 23.9529 32.2549 21.0881 35.9986 21.0881H35.9984ZM43.8503 37.2584C43.5745 41.3448 40.1606 44.5765 35.9988 44.5765C31.8369 44.5765 28.423 41.3448 28.1473 37.2584C27.3952 36.9874 26.8561 36.2661 26.8561 35.4193C26.8561 34.3393 27.7337 33.4636 28.8159 33.4636C29.8982 33.4636 30.7757 34.3393 30.7757 35.4193C30.7757 36.274 30.2242 36.9997 29.4594 37.2666C29.7351 40.6276 32.5601 43.2711 35.9991 43.2711C39.4382 43.2711 42.2627 40.6276 42.5388 37.2666C41.7699 36.9997 41.2225 36.2743 41.2225 35.4193C41.2225 34.3393 42.1 33.4636 43.1823 33.4636C44.2646 33.4636 45.1421 34.3393 45.1421 35.4193C45.1414 36.2661 44.6023 36.9874 43.8503 37.2584V37.2584ZM43.1816 34.769C42.8221 34.769 42.5298 35.061 42.5298 35.4194C42.5298 35.7781 42.8225 36.0698 43.1816 36.0698C43.5411 36.0698 43.8334 35.7778 43.8334 35.4194C43.8334 35.061 43.5411 34.769 43.1816 34.769ZM28.8152 34.769C28.4557 34.769 28.1634 35.061 28.1634 35.4194C28.1634 35.7781 28.4561 36.0698 28.8152 36.0698C29.1747 36.0698 29.467 35.7778 29.467 35.4194C29.4711 35.061 29.1788 34.769 28.8152 34.769ZM43.1816 34.769C42.8221 34.769 42.5298 35.061 42.5298 35.4194C42.5298 35.7781 42.8225 36.0698 43.1816 36.0698C43.5411 36.0698 43.8334 35.7778 43.8334 35.4194C43.8334 35.061 43.5411 34.769 43.1816 34.769ZM28.8152 34.769C28.4557 34.769 28.1634 35.061 28.1634 35.4194C28.1634 35.7781 28.4561 36.0698 28.8152 36.0698C29.1747 36.0698 29.467 35.7778 29.467 35.4194C29.4711 35.061 29.1788 34.769 28.8152 34.769ZM28.8152 34.769C28.4557 34.769 28.1634 35.061 28.1634 35.4194C28.1634 35.7781 28.4561 36.0698 28.8152 36.0698C29.1747 36.0698 29.467 35.7778 29.467 35.4194C29.4711 35.061 29.1788 34.769 28.8152 34.769ZM43.1816 34.769C42.8221 34.769 42.5298 35.061 42.5298 35.4194C42.5298 35.7781 42.8225 36.0698 43.1816 36.0698C43.5411 36.0698 43.8334 35.7778 43.8334 35.4194C43.8334 35.061 43.5411 34.769 43.1816 34.769Z" fill="white"/>
<path d="M132.553 31.6035V64.0752C135.142 63.7015 137.518 63.3678 139.68 63.0742C140.587 62.9408 141.495 62.8206 142.402 62.7139C143.337 62.5804 144.191 62.4603 144.965 62.3535C145.739 62.2467 146.406 62.1667 146.967 62.1133C147.527 62.0599 147.914 62.0332 148.128 62.0332C148.582 62.0332 148.969 62.1266 149.289 62.3135C149.609 62.4736 149.77 62.8206 149.77 63.3545V67.0381C149.77 67.5186 149.649 67.9723 149.409 68.3994C149.169 68.7998 148.595 69 147.688 69H108.77C107.515 69 106.487 68.8799 105.687 68.6396C104.912 68.3994 104.299 68.0524 103.845 67.5986C103.391 67.1449 103.084 66.571 102.924 65.877C102.764 65.1829 102.684 64.3688 102.684 63.4346V18.4707C102.684 16.9492 102.857 15.7347 103.204 14.8271C103.551 13.8929 104.045 13.1855 104.686 12.7051C105.326 12.1979 106.087 11.8776 106.968 11.7441C107.875 11.584 108.876 11.5039 109.971 11.5039H146.166C147.074 11.5039 147.647 11.7174 147.888 12.1445C148.155 12.5449 148.288 12.9987 148.288 13.5059V16.3486C148.288 16.8825 148.141 17.2428 147.848 17.4297C147.581 17.5898 147.22 17.6699 146.767 17.6699C146.5 17.6699 146.086 17.6432 145.525 17.5898C144.992 17.5365 144.364 17.4697 143.644 17.3896C142.923 17.2829 142.149 17.1761 141.321 17.0693C140.494 16.9626 139.666 16.8424 138.839 16.709C136.917 16.4154 134.822 16.0817 132.553 15.708V25.8779H147.447C148.008 25.8779 148.288 26.1582 148.288 26.7188V30.7227C148.288 31.3099 148.008 31.6035 147.447 31.6035H132.553ZM129.149 15.1475L126.026 14.707V64.9561L129.149 64.5557V15.1475ZM184.163 40.0918C184.163 43.375 184.297 46.2178 184.563 48.6201C184.83 50.9958 185.177 53.0244 185.604 54.7061C186.058 56.361 186.579 57.709 187.166 58.75C187.78 59.7643 188.407 60.5651 189.048 61.1523C189.688 61.7129 190.329 62.0999 190.97 62.3135C191.637 62.5003 192.264 62.5938 192.852 62.5938C193.519 62.5938 194.119 62.5137 194.653 62.3535C195.187 62.1667 195.668 61.9665 196.095 61.7529C196.522 61.5127 196.869 61.3125 197.136 61.1523C197.429 60.9655 197.656 60.8721 197.816 60.8721C198.03 60.8721 198.217 60.9922 198.377 61.2324L200.099 63.9551C200.179 64.1152 200.219 64.2487 200.219 64.3555C200.219 64.4889 200.165 64.609 200.059 64.7158C199.952 64.7959 199.858 64.876 199.778 64.9561C198.951 65.5967 197.896 66.2507 196.615 66.918C195.334 67.5853 193.866 68.1859 192.211 68.7197C190.583 69.2536 188.781 69.694 186.806 70.041C184.83 70.388 182.748 70.5615 180.56 70.5615C178.558 70.5615 176.502 70.3613 174.394 69.9609C172.312 69.5872 170.283 68.9466 168.308 68.0391C166.332 67.1048 164.464 65.877 162.702 64.3555C160.967 62.834 159.446 60.9521 158.138 58.71C156.83 56.4411 155.789 53.7852 155.015 50.7422C154.267 47.6725 153.894 44.1224 153.894 40.0918C153.894 36.0612 154.267 32.5244 155.015 29.4814C155.789 26.4118 156.83 23.7559 158.138 21.5137C159.446 19.2448 160.967 17.3496 162.702 15.8281C164.464 14.3066 166.332 13.0921 168.308 12.1846C170.283 11.2503 172.312 10.5964 174.394 10.2227C176.502 9.82227 178.558 9.62207 180.56 9.62207C182.748 9.62207 184.83 9.79557 186.806 10.1426C188.781 10.4896 190.583 10.93 192.211 11.4639C193.866 11.9977 195.334 12.5983 196.615 13.2656C197.896 13.9329 198.951 14.5869 199.778 15.2275C199.858 15.3076 199.952 15.401 200.059 15.5078C200.165 15.5879 200.219 15.6947 200.219 15.8281C200.219 15.9349 200.179 16.0684 200.099 16.2285L198.377 18.9512C198.217 19.1914 198.03 19.3115 197.816 19.3115C197.656 19.3115 197.429 19.2314 197.136 19.0713C196.869 18.8844 196.522 18.6842 196.095 18.4707C195.668 18.2305 195.187 18.0303 194.653 17.8701C194.119 17.6833 193.519 17.5898 192.852 17.5898C192.264 17.5898 191.637 17.6966 190.97 17.9102C190.329 18.097 189.688 18.484 189.048 19.0713C188.407 19.6318 187.78 20.4326 187.166 21.4736C186.579 22.488 186.058 23.8359 185.604 25.5176C185.177 27.1725 184.83 29.2012 184.563 31.6035C184.297 33.9792 184.163 36.8086 184.163 40.0918ZM177.396 40.0918C177.396 43.4017 177.543 46.2712 177.837 48.7002C178.157 51.1292 178.584 53.2246 179.118 54.9863C179.679 56.7214 180.319 58.1628 181.04 59.3105C181.787 60.4583 182.575 61.4059 183.402 62.1533C184.257 62.874 185.124 63.4346 186.005 63.835C186.912 64.2087 187.807 64.5023 188.688 64.7158C188.394 64.529 187.993 64.2754 187.486 63.9551C186.979 63.6081 186.419 63.1009 185.805 62.4336C185.217 61.7396 184.617 60.832 184.003 59.7109C183.416 58.5632 182.868 57.1084 182.361 55.3467C181.881 53.585 181.48 51.4629 181.16 48.9805C180.867 46.4714 180.72 43.5085 180.72 40.0918C180.72 36.6751 180.867 33.7256 181.16 31.2432C181.48 28.734 181.881 26.5986 182.361 24.8369C182.868 23.0752 183.416 21.6338 184.003 20.5127C184.617 19.3649 185.217 18.4574 185.805 17.79C186.419 17.096 186.979 16.5889 187.486 16.2686C187.993 15.9215 188.394 15.6546 188.688 15.4678C187.807 15.708 186.912 16.015 186.005 16.3887C185.124 16.7624 184.257 17.3229 183.402 18.0703C182.575 18.791 181.787 19.7253 181.04 20.873C180.319 22.0208 179.679 23.4756 179.118 25.2373C178.584 26.9723 178.157 29.0544 177.837 31.4834C177.543 33.9124 177.396 36.7819 177.396 40.0918ZM241.339 58.1094C240.325 58.6699 239.284 59.137 238.216 59.5107C237.175 59.8844 236.094 60.1914 234.973 60.4316V63.4346C234.973 64.2887 234.879 65.0628 234.692 65.7568C234.506 66.4242 234.172 66.998 233.691 67.4785C233.238 67.959 232.624 68.3327 231.85 68.5996C231.102 68.8665 230.155 69 229.007 69H211.27C209.988 69 208.947 68.8799 208.146 68.6396C207.346 68.3994 206.718 68.0524 206.265 67.5986C205.811 67.1449 205.504 66.571 205.344 65.877C205.184 65.1829 205.104 64.3688 205.104 63.4346V17.1094C205.104 16.1751 205.184 15.361 205.344 14.667C205.504 13.973 205.811 13.3991 206.265 12.9453C206.718 12.4648 207.346 12.1045 208.146 11.8643C208.947 11.624 209.988 11.5039 211.27 11.5039H229.127C231.049 11.5039 232.931 11.6641 234.772 11.9844C236.641 12.3047 238.403 12.8252 240.058 13.5459C241.739 14.2399 243.274 15.1742 244.662 16.3486C246.077 17.5231 247.291 18.9779 248.306 20.7129C249.347 22.4212 250.147 24.4232 250.708 26.7188C251.295 29.0143 251.589 31.6569 251.589 34.6465C251.589 37.209 251.429 39.5312 251.108 41.6133C250.788 43.6953 250.348 45.5771 249.787 47.2588C249.227 48.9404 248.546 50.4352 247.745 51.7432C246.971 53.0244 246.104 54.1589 245.143 55.1465L253.15 65.7168C253.417 66.0905 253.551 66.4508 253.551 66.7979C253.551 67.1982 253.404 67.5452 253.11 67.8389C252.843 68.1325 252.55 68.3727 252.229 68.5596L249.827 69.9609C249.64 70.0677 249.44 70.1478 249.227 70.2012C249.04 70.2812 248.84 70.3213 248.626 70.3213C248.332 70.3213 248.039 70.2279 247.745 70.041C247.451 69.8542 247.185 69.5339 246.944 69.0801L241.339 58.1094ZM245.943 35.3672C245.943 32.9648 245.73 30.7493 245.303 28.7207C244.876 26.6921 244.222 24.9036 243.341 23.3555C242.46 21.8073 241.326 20.526 239.938 19.5117C238.549 18.4974 236.895 17.8034 234.973 17.4297V55.1865C236.895 54.7594 238.549 53.9854 239.938 52.8643C241.326 51.7165 242.46 50.2884 243.341 48.5801C244.222 46.8717 244.876 44.9098 245.303 42.6943C245.73 40.4521 245.943 38.0098 245.943 35.3672ZM231.569 16.8291C231.035 16.8024 230.475 16.7891 229.888 16.7891C229.327 16.7624 228.847 16.749 228.446 16.749V65.6367C229.087 65.6367 229.607 65.6234 230.008 65.5967C230.408 65.5433 230.729 65.4365 230.969 65.2764C231.209 65.0895 231.369 64.8359 231.449 64.5156C231.529 64.1686 231.569 63.6882 231.569 63.0742V16.8291ZM287.904 31.6035V64.0752C290.493 63.7015 292.869 63.3678 295.031 63.0742C295.939 62.9408 296.846 62.8206 297.754 62.7139C298.688 62.5804 299.542 62.4603 300.316 62.3535C301.09 62.2467 301.758 62.1667 302.318 62.1133C302.879 62.0599 303.266 62.0332 303.479 62.0332C303.933 62.0332 304.32 62.1266 304.641 62.3135C304.961 62.4736 305.121 62.8206 305.121 63.3545V67.0381C305.121 67.5186 305.001 67.9723 304.761 68.3994C304.521 68.7998 303.947 69 303.039 69H264.121C262.867 69 261.839 68.8799 261.038 68.6396C260.264 68.3994 259.65 68.0524 259.196 67.5986C258.743 67.1449 258.436 66.571 258.275 65.877C258.115 65.1829 258.035 64.3688 258.035 63.4346V18.4707C258.035 16.9492 258.209 15.7347 258.556 14.8271C258.903 13.8929 259.396 13.1855 260.037 12.7051C260.678 12.1979 261.438 11.8776 262.319 11.7441C263.227 11.584 264.228 11.5039 265.322 11.5039H301.518C302.425 11.5039 302.999 11.7174 303.239 12.1445C303.506 12.5449 303.64 12.9987 303.64 13.5059V16.3486C303.64 16.8825 303.493 17.2428 303.199 17.4297C302.932 17.5898 302.572 17.6699 302.118 17.6699C301.851 17.6699 301.438 17.6432 300.877 17.5898C300.343 17.5365 299.716 17.4697 298.995 17.3896C298.274 17.2829 297.5 17.1761 296.673 17.0693C295.845 16.9626 295.018 16.8424 294.19 16.709C292.269 16.4154 290.173 16.0817 287.904 15.708V25.8779H302.799C303.359 25.8779 303.64 26.1582 303.64 26.7188V30.7227C303.64 31.3099 303.359 31.6035 302.799 31.6035H287.904ZM284.501 15.1475L281.378 14.707V64.9561L284.501 64.5557V15.1475Z" fill="#FA5252"/>
</svg>
